<svg xmlns="http://www.w3.org/2000/svg" version="1.1" xmlns:xlink="http://www.w3.org/1999/xlink" xmlns:svgjs="http://svgjs.dev/svgjs" width="1440" height="560" preserveAspectRatio="none" viewBox="0 0 1440 560"><g mask="url(&quot;#SvgjsMask1002&quot;)" fill="none"><path d="M98 140C89.78 67.4 16.89 40.93 29.17 0C37.89 -29.07 84.59 0 140 0C210 0 210 0 280 0C350 0 350 0 420 0C474.56 0 529.12 -21.69 529.12 0C529.12 29.84 484.17 71.67 420 103.06C359.61 132.61 349.55 110.04 280 121.88C241.05 128.51 203 130.17 203 140C203 149.93 249.87 137.62 280 161.39C338.61 207.62 328.16 222.74 380.47 280C398.16 299.36 398.11 314.64 420 314.64C451.48 314.64 460.19 305.17 487.2 280C530.19 239.95 516.71 184.21 560 184.21C618.11 184.21 680.44 222.05 690 280C699.89 339.94 647.62 352.53 598.89 420C582.62 442.53 575.08 436.84 560 460C529.51 506.84 547.13 531.88 507.76 560C477.13 581.88 463.88 560 420 560C350 560 350 560 280 560C210 560 210 560 140 560C86.16 560 81.54 571.24 32.31 560C11.54 555.26 4.78 548.77 0 528.04C-11.37 478.77 0 474.02 0 420C0 365.38 -18.74 353.86 0 310.77C11.7 283.86 45.18 307.34 60.87 280C94.18 221.95 105.63 207.4 98 140" stroke="rgba(36, 130, 228, 0.58)" stroke-width="2"></path><path d="M700 112C633.81 90.37 588 32.8 588 0C588 -23.2 644 0 700 0C770 0 770 0 840 0C910 0 910 0 980 0C1050 0 1050 0 1120 0C1190 0 1190 0 1260 0C1330 0 1330 0 1400 0C1470 0 1505 -35 1540 0C1575 35 1540 70 1540 140C1540 210 1540 210 1540 280C1540 350 1540 350 1540 420C1540 490 1575 525 1540 560C1505 595 1470 560 1400 560C1330 560 1330 560 1260 560C1190 560 1190 560 1120 560C1050 560 1050 560 980 560C910 560 910 560 840 560C770 560 770 560 700 560C660.7 560 621.4 576.08 621.4 560C621.4 537.46 665.25 524.93 700 482.76C722.94 454.93 727.26 454.45 736.77 420C755.26 353.07 724.13 330.85 756 280C775.75 248.49 816.14 285 840 255.29C872.35 215 868.41 196.1 868.41 140C868.41 109.63 866.1 86.69 840 82.35C781.89 72.69 759.81 131.54 700 112" stroke="rgba(36, 130, 228, 0.58)" stroke-width="2"></path><path d="M1400 115.29C1384 115.29 1371.23 127.25 1371.23 140C1371.23 153.42 1383.74 167.63 1400 167.63C1423.73 167.63 1451.22 153.24 1451.22 140C1451.22 127.07 1423.99 115.29 1400 115.29" stroke="rgba(36, 130, 228, 0.58)" stroke-width="2"></path><path d="M1120 275.94C1096.97 275.94 1078.34 261.96 1073.33 280C1058.34 333.99 1061.87 363.91 1080 420C1085.21 436.1 1100.35 424.38 1120 424.38C1125.18 424.38 1129.31 425.08 1129.66 420C1134.31 352.89 1134.48 346.87 1130 280C1129.65 274.84 1125.31 275.94 1120 275.94" stroke="rgba(36, 130, 228, 0.58)" stroke-width="2"></path><path d="M280 80.71C212.43 66.81 155.27 21.94 155.27 0C155.27 -18.42 217.63 0 280 0C350 0 350 0 420 0C448.83 0 477.65 -11.46 477.65 0C477.65 15.76 455.34 40.01 420 54.44C356.51 80.36 344.79 94.03 280 80.71" stroke="rgba(36, 130, 228, 0.58)" stroke-width="2"></path><path d="M700 65.33C662.47 65.33 634.67 19.13 634.67 0C634.67 -13.53 667.34 0 700 0C761.25 0 822.5 -15.31 822.5 0C822.5 17.35 756.39 65.33 700 65.33" stroke="rgba(36, 130, 228, 0.58)" stroke-width="2"></path><path d="M919.13 140C881.16 73.14 836.98 38.52 853.73 0C867.42 -31.48 916.87 0 980 0C1050 0 1050 0 1120 0C1190 0 1190 0 1260 0C1330 0 1330 0 1400 0C1470 0 1505 -35 1540 0C1575 35 1540 70 1540 140C1540 210 1540 210 1540 280C1540 341.92 1547.94 345.61 1540 403.85C1538.4 415.61 1520.91 411.83 1520.91 420C1520.91 428.31 1538.37 424.82 1540 436.8C1547.91 494.82 1572.77 531.17 1540 560C1502.77 592.77 1470 560 1400 560C1330 560 1330 560 1260 560C1190 560 1190 560 1120 560C1050 560 1050 560 980 560C955.77 560 954.61 566.03 931.54 560C884.61 547.72 875.36 554.43 840 523.38C795.65 484.43 772.12 471.11 772.12 420C772.12 371.42 801.62 324 840 324C884.97 324 899.09 365.36 938.82 420C969.09 461.63 941.95 504.15 980 516.55C1032.54 533.68 1051.98 503.35 1120 479.06C1187.15 455.08 1216.23 470.3 1250.34 420C1283.73 370.77 1286.94 327.74 1255 280C1221.77 230.35 1190.11 239.92 1120 225.22C1052.61 211.09 1038.01 246.96 980 222.35C937.58 204.35 944.29 184.31 919.13 140" stroke="rgba(36, 130, 228, 0.58)" stroke-width="2"></path><path d="M1400 74.12C1357.34 74.12 1323.29 105.99 1323.29 140C1323.29 175.77 1356.63 213.68 1400 213.68C1463.28 213.68 1536.59 175.29 1536.59 140C1536.59 105.51 1463.99 74.12 1400 74.12" stroke="rgba(36, 130, 228, 0.58)" stroke-width="2"></path><path d="M136.96 280C136.96 275.94 136.12 273.66 140 271.76C207.64 238.66 217.7 207.42 280 210C317.35 211.54 307.03 247.57 339.29 280C377.03 317.93 377.13 318.69 420 350.72C470.82 388.69 518.72 373.17 526.67 420C536.48 477.81 499.02 502.91 455.52 560C445.68 572.91 437.76 560 420 560C350 560 350 560 280 560C210 560 210 560 140 560C105.38 560 99.48 574.36 70.77 560C29.48 539.36 20.78 531.1 0 490C-14.61 461.1 0 455 0 420C0 384.62 -18.05 349.23 0 349.23C30.74 349.23 50.96 382.09 97.58 420C120.96 439.01 117.61 463.08 140 463.08C165.24 463.08 192.83 448.42 192.83 420C192.83 360.21 166.58 353.27 140 286.67C138.64 283.27 136.96 283.39 136.96 280" stroke="rgba(36, 130, 228, 0.58)" stroke-width="2"></path><path d="M557.2 280C557.2 277.92 558.34 276.32 560 276.32C562.24 276.32 565 277.63 565 280C565 283.85 562.04 288.75 560 288.75C558.14 288.75 557.2 284.13 557.2 280" stroke="rgba(36, 130, 228, 0.58)" stroke-width="2"></path><path d="M682.81 560C682.81 555.07 689.76 543.1 700 543.1C718.77 543.1 740.83 555.61 740.83 560C740.83 564.06 720.41 560 700 560C691.4 560 682.81 563.52 682.81 560" stroke="rgba(36, 130, 228, 0.58)" stroke-width="2"></path><path d="M280 39.53C246.25 38.55 218.91 10.74 218.91 0C218.91 -9.02 249.45 0 280 0C350 0 350 0 420 0C423.09 0 426.18 -1.23 426.18 0C426.18 1.69 424.07 4.73 420 5.83C350.98 24.49 346.79 41.47 280 39.53" stroke="rgba(36, 130, 228, 0.58)" stroke-width="2"></path><path d="M700 18.67C689.28 18.67 681.33 5.47 681.33 0C681.33 -3.87 690.66 0 700 0C717.5 0 735 -4.38 735 0C735 4.96 716.11 18.67 700 18.67" stroke="rgba(36, 130, 228, 0.58)" stroke-width="2"></path><path d="M969.86 140C944.02 71.09 918.7 50.36 922.35 0C923.77 -19.64 951.17 0 980 0C1050 0 1050 0 1120 0C1190 0 1190 0 1260 0C1330 0 1330 0 1400 0C1436.84 0 1473.68 -7.86 1473.68 0C1473.68 8.61 1432.66 9.88 1400 32.94C1333.49 79.88 1332.13 82.37 1275.34 140C1262.13 153.4 1276.65 171.3 1260 175C1198.98 188.55 1189.62 179.78 1120 174.49C1049.62 169.14 1046.99 169.12 980 153.73C971.92 151.87 972.84 147.96 969.86 140" stroke="rgba(36, 130, 228, 0.58)" stroke-width="2"></path><path d="M236 280C238.71 259.31 260.25 258.61 280 258.61C291.31 258.61 287.8 270.55 298.12 280C357.8 334.64 357.14 335.93 420 386.8C443.64 405.93 471.11 396.36 471.11 420C471.11 464.9 460.85 515.89 420 523.87C365.3 534.56 343.1 498.01 280 457.33C262.54 446.07 263.98 440.59 258.87 420C241.98 351.92 228.14 340 236 280" stroke="rgba(36, 130, 228, 0.58)" stroke-width="2"></path><path d="M1356 280C1356 262 1376.66 259.74 1400 259.74C1457.89 259.74 1518.46 255.27 1518.46 280C1518.46 310.69 1448.49 370.59 1400 370.59C1367.26 370.59 1356 317.42 1356 280" stroke="rgba(36, 130, 228, 0.58)" stroke-width="2"></path><path d="M0 387.69C14.04 387.69 44.55 403.9 44.55 420C44.55 436.04 14.07 451.96 0 451.96C-8.2 451.96 0 435.98 0 420C0 403.85 -8.24 387.69 0 387.69" stroke="rgba(36, 130, 228, 0.58)" stroke-width="2"></path><path d="M807.47 420C807.47 396.72 821.61 374 840 374C861.55 374 887.35 396.56 887.35 420C887.35 444.33 861.42 469.54 840 469.54C821.48 469.54 807.47 444.49 807.47 420" stroke="rgba(36, 130, 228, 0.58)" stroke-width="2"></path><path d="M109.23 560C109.23 546.38 120.51 516.92 140 516.92C169.23 516.92 206.67 548.29 206.67 560C206.67 569.83 173.33 560 140 560C124.62 560 109.23 567.92 109.23 560" stroke="rgba(36, 130, 228, 0.58)" stroke-width="2"></path><path d="M1060 560C1060 553.15 1090.25 533.75 1120 533.75C1147.35 533.75 1174.19 553.09 1174.19 560C1174.19 566.22 1147.1 560 1120 560C1090 560 1060 566.28 1060 560" stroke="rgba(36, 130, 228, 0.58)" stroke-width="2"></path><path d="M1345.81 560C1345.81 528.93 1364.65 466.67 1400 466.67C1447.75 466.67 1512 533.61 1512 560C1512 580.27 1456 560 1400 560C1372.9 560 1345.81 575.6 1345.81 560" stroke="rgba(36, 130, 228, 0.58)" stroke-width="2"></path></g><defs><mask id="SvgjsMask1002"><rect width="1440" height="560" fill="#ffffff"></rect></mask></defs></svg>