<svg xmlns="http://www.w3.org/2000/svg" version="1.1" xmlns:xlink="http://www.w3.org/1999/xlink" xmlns:svgjs="http://svgjs.dev/svgjs" width="1440" height="560" preserveAspectRatio="none" viewBox="0 0 1440 560"><g mask="url(&quot;#SvgjsMask1006&quot;)" fill="none"><path d="M-111.65 367.41L-111.65 367.41" stroke="rgba(26, 218, 205, 1)" stroke-width="1.5"></path><path d="M-111.65 367.41L-70.04 532.92" stroke="rgba(26, 218, 205, 1)" stroke-width="1.5"></path><path d="M-111.65 367.41L105.66 348.81" stroke="rgba(26, 218, 205, 1)" stroke-width="1.5"></path><path d="M-111.65 367.41L60.29 507.43" stroke="rgba(26, 218, 205, 1)" stroke-width="1.5"></path><path d="M-111.65 367.41L-46.92 643.89" stroke="rgba(26, 218, 205, 1)" stroke-width="1.5"></path><path d="M-111.65 367.41L47.21 639.74" stroke="rgba(26, 218, 205, 1)" stroke-width="1.5"></path><path d="M-70.04 532.92L-70.04 532.92" stroke="rgba(26, 218, 205, 1)" stroke-width="1.5"></path><path d="M-70.04 532.92L-46.92 643.89" stroke="rgba(26, 218, 205, 1)" stroke-width="1.5"></path><path d="M-70.04 532.92L60.29 507.43" stroke="rgba(26, 218, 205, 1)" stroke-width="1.5"></path><path d="M-70.04 532.92L47.21 639.74" stroke="rgba(26, 218, 205, 1)" stroke-width="1.5"></path><path d="M-70.04 532.92L105.66 348.81" stroke="rgba(26, 218, 205, 1)" stroke-width="1.5"></path><path d="M-70.04 532.92L193.12 525.01" stroke="rgba(26, 218, 205, 1)" stroke-width="1.5"></path><path d="M-46.92 643.89L-46.92 643.89" stroke="rgba(26, 218, 205, 1)" stroke-width="1.5"></path><path d="M-46.92 643.89L47.21 639.74" stroke="rgba(26, 218, 205, 1)" stroke-width="1.5"></path><path d="M105.66 348.81L105.66 348.81" stroke="rgba(26, 218, 205, 1)" stroke-width="1.5"></path><path d="M105.66 348.81L214.88 372.96" stroke="rgba(26, 218, 205, 1)" stroke-width="1.5"></path><path d="M105.66 348.81L60.29 507.43" stroke="rgba(26, 218, 205, 1)" stroke-width="1.5"></path><path d="M105.66 348.81L193.12 525.01" stroke="rgba(26, 218, 205, 1)" stroke-width="1.5"></path><path d="M105.66 348.81L394.09 344.55" stroke="rgba(26, 218, 205, 1)" stroke-width="1.5"></path><path d="M60.29 507.43L60.29 507.43" stroke="rgba(26, 218, 205, 1)" stroke-width="1.5"></path><path d="M60.29 507.43L47.21 639.74" stroke="rgba(26, 218, 205, 1)" stroke-width="1.5"></path><path d="M60.29 507.43L193.12 525.01" stroke="rgba(26, 218, 205, 1)" stroke-width="1.5"></path><path d="M60.29 507.43L-46.92 643.89" stroke="rgba(26, 218, 205, 1)" stroke-width="1.5"></path><path d="M47.21 639.74L47.21 639.74" stroke="rgba(26, 218, 205, 1)" stroke-width="1.5"></path><path d="M214.88 372.96L214.88 372.96" stroke="rgba(26, 218, 205, 1)" stroke-width="1.5"></path><path d="M214.88 372.96L193.12 525.01" stroke="rgba(26, 218, 205, 1)" stroke-width="1.5"></path><path d="M214.88 372.96L394.09 344.55" stroke="rgba(26, 218, 205, 1)" stroke-width="1.5"></path><path d="M214.88 372.96L60.29 507.43" stroke="rgba(26, 218, 205, 1)" stroke-width="1.5"></path><path d="M214.88 372.96L400.11 539.35" stroke="rgba(26, 218, 205, 1)" stroke-width="1.5"></path><path d="M214.88 372.96L238.28 677.87" stroke="rgba(26, 218, 205, 1)" stroke-width="1.5"></path><path d="M193.12 525.01L193.12 525.01" stroke="rgba(26, 218, 205, 1)" stroke-width="1.5"></path><path d="M238.28 677.87L238.28 677.87" stroke="rgba(26, 218, 205, 1)" stroke-width="1.5"></path><path d="M238.28 677.87L375.45 672.67" stroke="rgba(26, 218, 205, 1)" stroke-width="1.5"></path><path d="M238.28 677.87L193.12 525.01" stroke="rgba(26, 218, 205, 1)" stroke-width="1.5"></path><path d="M394.09 344.55L394.09 344.55" stroke="rgba(26, 218, 205, 1)" stroke-width="1.5"></path><path d="M394.09 344.55L541.57 398.94" stroke="rgba(26, 218, 205, 1)" stroke-width="1.5"></path><path d="M400.11 539.35L400.11 539.35" stroke="rgba(26, 218, 205, 1)" stroke-width="1.5"></path><path d="M400.11 539.35L496.07 557.34" stroke="rgba(26, 218, 205, 1)" stroke-width="1.5"></path><path d="M400.11 539.35L375.45 672.67" stroke="rgba(26, 218, 205, 1)" stroke-width="1.5"></path><path d="M400.11 539.35L394.09 344.55" stroke="rgba(26, 218, 205, 1)" stroke-width="1.5"></path><path d="M400.11 539.35L541.57 398.94" stroke="rgba(26, 218, 205, 1)" stroke-width="1.5"></path><path d="M375.45 672.67L375.45 672.67" stroke="rgba(26, 218, 205, 1)" stroke-width="1.5"></path><path d="M541.57 398.94L541.57 398.94" stroke="rgba(26, 218, 205, 1)" stroke-width="1.5"></path><path d="M541.57 398.94L644.26 363.05" stroke="rgba(26, 218, 205, 1)" stroke-width="1.5"></path><path d="M541.57 398.94L496.07 557.34" stroke="rgba(26, 218, 205, 1)" stroke-width="1.5"></path><path d="M496.07 557.34L496.07 557.34" stroke="rgba(26, 218, 205, 1)" stroke-width="1.5"></path><path d="M496.07 557.34L512.05 711.55" stroke="rgba(26, 218, 205, 1)" stroke-width="1.5"></path><path d="M496.07 557.34L657.4 536.75" stroke="rgba(26, 218, 205, 1)" stroke-width="1.5"></path><path d="M512.05 711.55L512.05 711.55" stroke="rgba(26, 218, 205, 1)" stroke-width="1.5"></path><path d="M512.05 711.55L375.45 672.67" stroke="rgba(26, 218, 205, 1)" stroke-width="1.5"></path><path d="M512.05 711.55L687.36 709.24" stroke="rgba(26, 218, 205, 1)" stroke-width="1.5"></path><path d="M512.05 711.55L400.11 539.35" stroke="rgba(26, 218, 205, 1)" stroke-width="1.5"></path><path d="M512.05 711.55L657.4 536.75" stroke="rgba(26, 218, 205, 1)" stroke-width="1.5"></path><path d="M512.05 711.55L238.28 677.87" stroke="rgba(26, 218, 205, 1)" stroke-width="1.5"></path><path d="M681.86 234.22L681.86 234.22" stroke="rgba(26, 218, 205, 1)" stroke-width="1.5"></path><path d="M681.86 234.22L644.26 363.05" stroke="rgba(26, 218, 205, 1)" stroke-width="1.5"></path><path d="M681.86 234.22L853.02 230.11" stroke="rgba(26, 218, 205, 1)" stroke-width="1.5"></path><path d="M644.26 363.05L644.26 363.05" stroke="rgba(26, 218, 205, 1)" stroke-width="1.5"></path><path d="M657.4 536.75L657.4 536.75" stroke="rgba(26, 218, 205, 1)" stroke-width="1.5"></path><path d="M657.4 536.75L798.11 552.9" stroke="rgba(26, 218, 205, 1)" stroke-width="1.5"></path><path d="M687.36 709.24L687.36 709.24" stroke="rgba(26, 218, 205, 1)" stroke-width="1.5"></path><path d="M687.36 709.24L845.11 682.86" stroke="rgba(26, 218, 205, 1)" stroke-width="1.5"></path><path d="M687.36 709.24L657.4 536.75" stroke="rgba(26, 218, 205, 1)" stroke-width="1.5"></path><path d="M687.36 709.24L798.11 552.9" stroke="rgba(26, 218, 205, 1)" stroke-width="1.5"></path><path d="M853.02 230.11L853.02 230.11" stroke="rgba(26, 218, 205, 1)" stroke-width="1.5"></path><path d="M853.02 230.11L844.74 338.38" stroke="rgba(26, 218, 205, 1)" stroke-width="1.5"></path><path d="M853.02 230.11L998.86 188.1" stroke="rgba(26, 218, 205, 1)" stroke-width="1.5"></path><path d="M853.02 230.11L958.64 46.95" stroke="rgba(26, 218, 205, 1)" stroke-width="1.5"></path><path d="M853.02 230.11L1005.62 410.88" stroke="rgba(26, 218, 205, 1)" stroke-width="1.5"></path><path d="M844.74 338.38L844.74 338.38" stroke="rgba(26, 218, 205, 1)" stroke-width="1.5"></path><path d="M844.74 338.38L1005.62 410.88" stroke="rgba(26, 218, 205, 1)" stroke-width="1.5"></path><path d="M844.74 338.38L681.86 234.22" stroke="rgba(26, 218, 205, 1)" stroke-width="1.5"></path><path d="M844.74 338.38L644.26 363.05" stroke="rgba(26, 218, 205, 1)" stroke-width="1.5"></path><path d="M844.74 338.38L998.86 188.1" stroke="rgba(26, 218, 205, 1)" stroke-width="1.5"></path><path d="M798.11 552.9L798.11 552.9" stroke="rgba(26, 218, 205, 1)" stroke-width="1.5"></path><path d="M798.11 552.9L845.11 682.86" stroke="rgba(26, 218, 205, 1)" stroke-width="1.5"></path><path d="M798.11 552.9L1009.01 528.76" stroke="rgba(26, 218, 205, 1)" stroke-width="1.5"></path><path d="M798.11 552.9L844.74 338.38" stroke="rgba(26, 218, 205, 1)" stroke-width="1.5"></path><path d="M798.11 552.9L972.13 711.72" stroke="rgba(26, 218, 205, 1)" stroke-width="1.5"></path><path d="M845.11 682.86L845.11 682.86" stroke="rgba(26, 218, 205, 1)" stroke-width="1.5"></path><path d="M845.11 682.86L972.13 711.72" stroke="rgba(26, 218, 205, 1)" stroke-width="1.5"></path><path d="M950.65 -51.94L950.65 -51.94" stroke="rgba(26, 218, 205, 1)" stroke-width="1.5"></path><path d="M950.65 -51.94L958.64 46.95" stroke="rgba(26, 218, 205, 1)" stroke-width="1.5"></path><path d="M950.65 -51.94L1094.96 -81.16" stroke="rgba(26, 218, 205, 1)" stroke-width="1.5"></path><path d="M950.65 -51.94L1110.39 61.95" stroke="rgba(26, 218, 205, 1)" stroke-width="1.5"></path><path d="M950.65 -51.94L998.86 188.1" stroke="rgba(26, 218, 205, 1)" stroke-width="1.5"></path><path d="M950.65 -51.94L853.02 230.11" stroke="rgba(26, 218, 205, 1)" stroke-width="1.5"></path><path d="M958.64 46.95L958.64 46.95" stroke="rgba(26, 218, 205, 1)" stroke-width="1.5"></path><path d="M958.64 46.95L998.86 188.1" stroke="rgba(26, 218, 205, 1)" stroke-width="1.5"></path><path d="M958.64 46.95L1110.39 61.95" stroke="rgba(26, 218, 205, 1)" stroke-width="1.5"></path><path d="M958.64 46.95L1094.96 -81.16" stroke="rgba(26, 218, 205, 1)" stroke-width="1.5"></path><path d="M958.64 46.95L1105.19 212.53" stroke="rgba(26, 218, 205, 1)" stroke-width="1.5"></path><path d="M998.86 188.1L998.86 188.1" stroke="rgba(26, 218, 205, 1)" stroke-width="1.5"></path><path d="M998.86 188.1L1105.19 212.53" stroke="rgba(26, 218, 205, 1)" stroke-width="1.5"></path><path d="M998.86 188.1L1110.39 61.95" stroke="rgba(26, 218, 205, 1)" stroke-width="1.5"></path><path d="M1005.62 410.88L1005.62 410.88" stroke="rgba(26, 218, 205, 1)" stroke-width="1.5"></path><path d="M1005.62 410.88L1009.01 528.76" stroke="rgba(26, 218, 205, 1)" stroke-width="1.5"></path><path d="M1005.62 410.88L1098.12 501.03" stroke="rgba(26, 218, 205, 1)" stroke-width="1.5"></path><path d="M1005.62 410.88L1131.76 376.44" stroke="rgba(26, 218, 205, 1)" stroke-width="1.5"></path><path d="M1009.01 528.76L1009.01 528.76" stroke="rgba(26, 218, 205, 1)" stroke-width="1.5"></path><path d="M1009.01 528.76L1098.12 501.03" stroke="rgba(26, 218, 205, 1)" stroke-width="1.5"></path><path d="M1009.01 528.76L1142.98 646.39" stroke="rgba(26, 218, 205, 1)" stroke-width="1.5"></path><path d="M1009.01 528.76L972.13 711.72" stroke="rgba(26, 218, 205, 1)" stroke-width="1.5"></path><path d="M1009.01 528.76L1131.76 376.44" stroke="rgba(26, 218, 205, 1)" stroke-width="1.5"></path><path d="M972.13 711.72L972.13 711.72" stroke="rgba(26, 218, 205, 1)" stroke-width="1.5"></path><path d="M972.13 711.72L1142.98 646.39" stroke="rgba(26, 218, 205, 1)" stroke-width="1.5"></path><path d="M1094.96 -81.16L1094.96 -81.16" stroke="rgba(26, 218, 205, 1)" stroke-width="1.5"></path><path d="M1094.96 -81.16L1110.39 61.95" stroke="rgba(26, 218, 205, 1)" stroke-width="1.5"></path><path d="M1110.39 61.95L1110.39 61.95" stroke="rgba(26, 218, 205, 1)" stroke-width="1.5"></path><path d="M1110.39 61.95L1249.76 82.62" stroke="rgba(26, 218, 205, 1)" stroke-width="1.5"></path><path d="M1110.39 61.95L1105.19 212.53" stroke="rgba(26, 218, 205, 1)" stroke-width="1.5"></path><path d="M1105.19 212.53L1105.19 212.53" stroke="rgba(26, 218, 205, 1)" stroke-width="1.5"></path><path d="M1105.19 212.53L1242.78 198.8" stroke="rgba(26, 218, 205, 1)" stroke-width="1.5"></path><path d="M1131.76 376.44L1131.76 376.44" stroke="rgba(26, 218, 205, 1)" stroke-width="1.5"></path><path d="M1131.76 376.44L1098.12 501.03" stroke="rgba(26, 218, 205, 1)" stroke-width="1.5"></path><path d="M1131.76 376.44L1272.58 380.48" stroke="rgba(26, 218, 205, 1)" stroke-width="1.5"></path><path d="M1131.76 376.44L1105.19 212.53" stroke="rgba(26, 218, 205, 1)" stroke-width="1.5"></path><path d="M1131.76 376.44L1272.17 500.21" stroke="rgba(26, 218, 205, 1)" stroke-width="1.5"></path><path d="M1098.12 501.03L1098.12 501.03" stroke="rgba(26, 218, 205, 1)" stroke-width="1.5"></path><path d="M1098.12 501.03L1142.98 646.39" stroke="rgba(26, 218, 205, 1)" stroke-width="1.5"></path><path d="M1098.12 501.03L1272.17 500.21" stroke="rgba(26, 218, 205, 1)" stroke-width="1.5"></path><path d="M1142.98 646.39L1142.98 646.39" stroke="rgba(26, 218, 205, 1)" stroke-width="1.5"></path><path d="M1142.98 646.39L1299.85 671.33" stroke="rgba(26, 218, 205, 1)" stroke-width="1.5"></path><path d="M1142.98 646.39L1272.17 500.21" stroke="rgba(26, 218, 205, 1)" stroke-width="1.5"></path><path d="M1298.21 -102.14L1298.21 -102.14" stroke="rgba(26, 218, 205, 1)" stroke-width="1.5"></path><path d="M1298.21 -102.14L1429.75 -59.9" stroke="rgba(26, 218, 205, 1)" stroke-width="1.5"></path><path d="M1298.21 -102.14L1249.76 82.62" stroke="rgba(26, 218, 205, 1)" stroke-width="1.5"></path><path d="M1298.21 -102.14L1094.96 -81.16" stroke="rgba(26, 218, 205, 1)" stroke-width="1.5"></path><path d="M1298.21 -102.14L1431.97 65.34" stroke="rgba(26, 218, 205, 1)" stroke-width="1.5"></path><path d="M1249.76 82.62L1249.76 82.62" stroke="rgba(26, 218, 205, 1)" stroke-width="1.5"></path><path d="M1249.76 82.62L1242.78 198.8" stroke="rgba(26, 218, 205, 1)" stroke-width="1.5"></path><path d="M1242.78 198.8L1242.78 198.8" stroke="rgba(26, 218, 205, 1)" stroke-width="1.5"></path><path d="M1242.78 198.8L1407.56 235.62" stroke="rgba(26, 218, 205, 1)" stroke-width="1.5"></path><path d="M1272.58 380.48L1272.58 380.48" stroke="rgba(26, 218, 205, 1)" stroke-width="1.5"></path><path d="M1272.58 380.48L1272.17 500.21" stroke="rgba(26, 218, 205, 1)" stroke-width="1.5"></path><path d="M1272.58 380.48L1409.59 354.45" stroke="rgba(26, 218, 205, 1)" stroke-width="1.5"></path><path d="M1272.17 500.21L1272.17 500.21" stroke="rgba(26, 218, 205, 1)" stroke-width="1.5"></path><path d="M1272.17 500.21L1390.96 510.62" stroke="rgba(26, 218, 205, 1)" stroke-width="1.5"></path><path d="M1272.17 500.21L1299.85 671.33" stroke="rgba(26, 218, 205, 1)" stroke-width="1.5"></path><path d="M1299.85 671.33L1299.85 671.33" stroke="rgba(26, 218, 205, 1)" stroke-width="1.5"></path><path d="M1299.85 671.33L1420.5 676.67" stroke="rgba(26, 218, 205, 1)" stroke-width="1.5"></path><path d="M1299.85 671.33L1390.96 510.62" stroke="rgba(26, 218, 205, 1)" stroke-width="1.5"></path><path d="M1299.85 671.33L1098.12 501.03" stroke="rgba(26, 218, 205, 1)" stroke-width="1.5"></path><path d="M1299.85 671.33L1571.77 650.52" stroke="rgba(26, 218, 205, 1)" stroke-width="1.5"></path><path d="M1429.75 -59.9L1429.75 -59.9" stroke="rgba(26, 218, 205, 1)" stroke-width="1.5"></path><path d="M1429.75 -59.9L1431.97 65.34" stroke="rgba(26, 218, 205, 1)" stroke-width="1.5"></path><path d="M1431.97 65.34L1431.97 65.34" stroke="rgba(26, 218, 205, 1)" stroke-width="1.5"></path><path d="M1431.97 65.34L1407.56 235.62" stroke="rgba(26, 218, 205, 1)" stroke-width="1.5"></path><path d="M1431.97 65.34L1610.64 63.26" stroke="rgba(26, 218, 205, 1)" stroke-width="1.5"></path><path d="M1431.97 65.34L1249.76 82.62" stroke="rgba(26, 218, 205, 1)" stroke-width="1.5"></path><path d="M1431.97 65.34L1543.65 216.91" stroke="rgba(26, 218, 205, 1)" stroke-width="1.5"></path><path d="M1407.56 235.62L1407.56 235.62" stroke="rgba(26, 218, 205, 1)" stroke-width="1.5"></path><path d="M1407.56 235.62L1409.59 354.45" stroke="rgba(26, 218, 205, 1)" stroke-width="1.5"></path><path d="M1407.56 235.62L1543.65 216.91" stroke="rgba(26, 218, 205, 1)" stroke-width="1.5"></path><path d="M1407.56 235.62L1272.58 380.48" stroke="rgba(26, 218, 205, 1)" stroke-width="1.5"></path><path d="M1409.59 354.45L1409.59 354.45" stroke="rgba(26, 218, 205, 1)" stroke-width="1.5"></path><path d="M1409.59 354.45L1390.96 510.62" stroke="rgba(26, 218, 205, 1)" stroke-width="1.5"></path><path d="M1390.96 510.62L1390.96 510.62" stroke="rgba(26, 218, 205, 1)" stroke-width="1.5"></path><path d="M1390.96 510.62L1420.5 676.67" stroke="rgba(26, 218, 205, 1)" stroke-width="1.5"></path><path d="M1390.96 510.62L1272.58 380.48" stroke="rgba(26, 218, 205, 1)" stroke-width="1.5"></path><path d="M1420.5 676.67L1420.5 676.67" stroke="rgba(26, 218, 205, 1)" stroke-width="1.5"></path><path d="M1420.5 676.67L1571.77 650.52" stroke="rgba(26, 218, 205, 1)" stroke-width="1.5"></path><path d="M1578.73 -104.42L1578.73 -104.42" stroke="rgba(26, 218, 205, 1)" stroke-width="1.5"></path><path d="M1578.73 -104.42L1429.75 -59.9" stroke="rgba(26, 218, 205, 1)" stroke-width="1.5"></path><path d="M1578.73 -104.42L1610.64 63.26" stroke="rgba(26, 218, 205, 1)" stroke-width="1.5"></path><path d="M1578.73 -104.42L1431.97 65.34" stroke="rgba(26, 218, 205, 1)" stroke-width="1.5"></path><path d="M1578.73 -104.42L1298.21 -102.14" stroke="rgba(26, 218, 205, 1)" stroke-width="1.5"></path><path d="M1578.73 -104.42L1543.65 216.91" stroke="rgba(26, 218, 205, 1)" stroke-width="1.5"></path><path d="M1578.73 -104.42L1249.76 82.62" stroke="rgba(26, 218, 205, 1)" stroke-width="1.5"></path><path d="M1610.64 63.26L1610.64 63.26" stroke="rgba(26, 218, 205, 1)" stroke-width="1.5"></path><path d="M1610.64 63.26L1543.65 216.91" stroke="rgba(26, 218, 205, 1)" stroke-width="1.5"></path><path d="M1610.64 63.26L1429.75 -59.9" stroke="rgba(26, 218, 205, 1)" stroke-width="1.5"></path><path d="M1610.64 63.26L1407.56 235.62" stroke="rgba(26, 218, 205, 1)" stroke-width="1.5"></path><path d="M1610.64 63.26L1585.03 370.3" stroke="rgba(26, 218, 205, 1)" stroke-width="1.5"></path><path d="M1543.65 216.91L1543.65 216.91" stroke="rgba(26, 218, 205, 1)" stroke-width="1.5"></path><path d="M1543.65 216.91L1585.03 370.3" stroke="rgba(26, 218, 205, 1)" stroke-width="1.5"></path><path d="M1543.65 216.91L1409.59 354.45" stroke="rgba(26, 218, 205, 1)" stroke-width="1.5"></path><path d="M1543.65 216.91L1429.75 -59.9" stroke="rgba(26, 218, 205, 1)" stroke-width="1.5"></path><path d="M1585.03 370.3L1585.03 370.3" stroke="rgba(26, 218, 205, 1)" stroke-width="1.5"></path><path d="M1585.03 370.3L1599.99 527.07" stroke="rgba(26, 218, 205, 1)" stroke-width="1.5"></path><path d="M1599.99 527.07L1599.99 527.07" stroke="rgba(26, 218, 205, 1)" stroke-width="1.5"></path><path d="M1599.99 527.07L1571.77 650.52" stroke="rgba(26, 218, 205, 1)" stroke-width="1.5"></path><path d="M1599.99 527.07L1390.96 510.62" stroke="rgba(26, 218, 205, 1)" stroke-width="1.5"></path><path d="M1599.99 527.07L1420.5 676.67" stroke="rgba(26, 218, 205, 1)" stroke-width="1.5"></path><path d="M1571.77 650.52L1571.77 650.52" stroke="rgba(26, 218, 205, 1)" stroke-width="1.5"></path><path d="M1571.77 650.52L1390.96 510.62" stroke="rgba(26, 218, 205, 1)" stroke-width="1.5"></path><circle r="5" cx="-111.65" cy="367.41" fill="rgba(26, 218, 205, 1)"></circle><circle r="5" cx="-70.04" cy="532.92" fill="rgba(26, 218, 205, 1)"></circle><circle r="5" cx="-46.92" cy="643.89" fill="rgba(26, 218, 205, 1)"></circle><circle r="5" cx="105.66" cy="348.81" fill="rgba(26, 218, 205, 1)"></circle><circle r="5" cx="60.29" cy="507.43" fill="rgba(26, 218, 205, 1)"></circle><circle r="5" cx="47.21" cy="639.74" fill="rgba(26, 218, 205, 1)"></circle><circle r="5" cx="214.88" cy="372.96" fill="rgba(26, 218, 205, 1)"></circle><circle r="5" cx="193.12" cy="525.01" fill="rgba(26, 218, 205, 1)"></circle><circle r="5" cx="238.28" cy="677.87" fill="rgba(26, 218, 205, 1)"></circle><circle r="5" cx="394.09" cy="344.55" fill="rgba(26, 218, 205, 1)"></circle><circle r="5" cx="400.11" cy="539.35" fill="rgba(26, 218, 205, 1)"></circle><circle r="5" cx="375.45" cy="672.67" fill="rgba(26, 218, 205, 1)"></circle><circle r="5" cx="541.57" cy="398.94" fill="rgba(26, 218, 205, 1)"></circle><circle r="5" cx="496.07" cy="557.34" fill="rgba(26, 218, 205, 1)"></circle><circle r="5" cx="512.05" cy="711.55" fill="rgba(26, 218, 205, 1)"></circle><circle r="5" cx="681.86" cy="234.22" fill="rgba(26, 218, 205, 1)"></circle><circle r="5" cx="644.26" cy="363.05" fill="rgba(26, 218, 205, 1)"></circle><circle r="5" cx="657.4" cy="536.75" fill="rgba(26, 218, 205, 1)"></circle><circle r="5" cx="687.36" cy="709.24" fill="rgba(26, 218, 205, 1)"></circle><circle r="5" cx="853.02" cy="230.11" fill="rgba(26, 218, 205, 1)"></circle><circle r="5" cx="844.74" cy="338.38" fill="rgba(26, 218, 205, 1)"></circle><circle r="5" cx="798.11" cy="552.9" fill="rgba(26, 218, 205, 1)"></circle><circle r="5" cx="845.11" cy="682.86" fill="rgba(26, 218, 205, 1)"></circle><circle r="5" cx="950.65" cy="-51.94" fill="rgba(26, 218, 205, 1)"></circle><circle r="5" cx="958.64" cy="46.95" fill="rgba(26, 218, 205, 1)"></circle><circle r="5" cx="998.86" cy="188.1" fill="rgba(26, 218, 205, 1)"></circle><circle r="5" cx="1005.62" cy="410.88" fill="rgba(26, 218, 205, 1)"></circle><circle r="5" cx="1009.01" cy="528.76" fill="rgba(26, 218, 205, 1)"></circle><circle r="5" cx="972.13" cy="711.72" fill="rgba(26, 218, 205, 1)"></circle><circle r="5" cx="1094.96" cy="-81.16" fill="rgba(26, 218, 205, 1)"></circle><circle r="5" cx="1110.39" cy="61.95" fill="rgba(26, 218, 205, 1)"></circle><circle r="5" cx="1105.19" cy="212.53" fill="rgba(26, 218, 205, 1)"></circle><circle r="5" cx="1131.76" cy="376.44" fill="rgba(26, 218, 205, 1)"></circle><circle r="5" cx="1098.12" cy="501.03" fill="rgba(26, 218, 205, 1)"></circle><circle r="5" cx="1142.98" cy="646.39" fill="rgba(26, 218, 205, 1)"></circle><circle r="5" cx="1298.21" cy="-102.14" fill="rgba(26, 218, 205, 1)"></circle><circle r="5" cx="1249.76" cy="82.62" fill="rgba(26, 218, 205, 1)"></circle><circle r="5" cx="1242.78" cy="198.8" fill="rgba(26, 218, 205, 1)"></circle><circle r="5" cx="1272.58" cy="380.48" fill="rgba(26, 218, 205, 1)"></circle><circle r="5" cx="1272.17" cy="500.21" fill="rgba(26, 218, 205, 1)"></circle><circle r="5" cx="1299.85" cy="671.33" fill="rgba(26, 218, 205, 1)"></circle><circle r="5" cx="1429.75" cy="-59.9" fill="rgba(26, 218, 205, 1)"></circle><circle r="5" cx="1431.97" cy="65.34" fill="rgba(26, 218, 205, 1)"></circle><circle r="5" cx="1407.56" cy="235.62" fill="rgba(26, 218, 205, 1)"></circle><circle r="5" cx="1409.59" cy="354.45" fill="rgba(26, 218, 205, 1)"></circle><circle r="5" cx="1390.96" cy="510.62" fill="rgba(26, 218, 205, 1)"></circle><circle r="5" cx="1420.5" cy="676.67" fill="rgba(26, 218, 205, 1)"></circle><circle r="5" cx="1578.73" cy="-104.42" fill="rgba(26, 218, 205, 1)"></circle><circle r="5" cx="1610.64" cy="63.26" fill="rgba(26, 218, 205, 1)"></circle><circle r="5" cx="1543.65" cy="216.91" fill="rgba(26, 218, 205, 1)"></circle><circle r="5" cx="1585.03" cy="370.3" fill="rgba(26, 218, 205, 1)"></circle><circle r="5" cx="1599.99" cy="527.07" fill="rgba(26, 218, 205, 1)"></circle><circle r="5" cx="1571.77" cy="650.52" fill="rgba(26, 218, 205, 1)"></circle><path d="M-97.22 538.69L-97.22 538.69" stroke="hsl(312.79999999999995, 69.5%, 66.5%)" stroke-width="1.5"></path><path d="M-97.22 538.69L-58.91 674.62" stroke="hsl(312.79999999999995, 69.5%, 66.5%)" stroke-width="1.5"></path><path d="M-97.22 538.69L78.62 495.98" stroke="hsl(312.79999999999995, 69.5%, 66.5%)" stroke-width="1.5"></path><path d="M-97.22 538.69L45.11 702.86" stroke="hsl(312.79999999999995, 69.5%, 66.5%)" stroke-width="1.5"></path><path d="M-97.22 538.69L233.11 549.89" stroke="hsl(312.79999999999995, 69.5%, 66.5%)" stroke-width="1.5"></path><path d="M-97.22 538.69L208.21 673.85" stroke="hsl(312.79999999999995, 69.5%, 66.5%)" stroke-width="1.5"></path><path d="M-58.91 674.62L-58.91 674.62" stroke="hsl(312.79999999999995, 69.5%, 66.5%)" stroke-width="1.5"></path><path d="M-58.91 674.62L45.11 702.86" stroke="hsl(312.79999999999995, 69.5%, 66.5%)" stroke-width="1.5"></path><path d="M-58.91 674.62L78.62 495.98" stroke="hsl(312.79999999999995, 69.5%, 66.5%)" stroke-width="1.5"></path><path d="M-58.91 674.62L208.21 673.85" stroke="hsl(312.79999999999995, 69.5%, 66.5%)" stroke-width="1.5"></path><path d="M-58.91 674.62L233.11 549.89" stroke="hsl(312.79999999999995, 69.5%, 66.5%)" stroke-width="1.5"></path><path d="M208.21 673.85L208.21 673.85" stroke="hsl(312.79999999999995, 69.5%, 66.5%)" stroke-width="1.5"></path><path d="M208.21 673.85L233.11 549.89" stroke="hsl(312.79999999999995, 69.5%, 66.5%)" stroke-width="1.5"></path><path d="M854.53 528.94L854.53 528.94" stroke="hsl(312.79999999999995, 69.5%, 66.5%)" stroke-width="1.5"></path><path d="M854.53 528.94L962.37 535.8" stroke="hsl(312.79999999999995, 69.5%, 66.5%)" stroke-width="1.5"></path><path d="M974.88 244.89L974.88 244.89" stroke="hsl(312.79999999999995, 69.5%, 66.5%)" stroke-width="1.5"></path><path d="M974.88 244.89L960.34 392.16" stroke="hsl(312.79999999999995, 69.5%, 66.5%)" stroke-width="1.5"></path><path d="M974.88 244.89L1088.08 343.66" stroke="hsl(312.79999999999995, 69.5%, 66.5%)" stroke-width="1.5"></path><path d="M974.88 244.89L1136.37 235.2" stroke="hsl(312.79999999999995, 69.5%, 66.5%)" stroke-width="1.5"></path><path d="M974.88 244.89L795.55 404.76" stroke="hsl(312.79999999999995, 69.5%, 66.5%)" stroke-width="1.5"></path><path d="M974.88 244.89L1094.02 509.98" stroke="hsl(312.79999999999995, 69.5%, 66.5%)" stroke-width="1.5"></path><path d="M974.88 244.89L1247.78 346.23" stroke="hsl(312.79999999999995, 69.5%, 66.5%)" stroke-width="1.5"></path><path d="M1005.57 654.57L1005.57 654.57" stroke="hsl(312.79999999999995, 69.5%, 66.5%)" stroke-width="1.5"></path><path d="M1005.57 654.57L1099.96 675.96" stroke="hsl(312.79999999999995, 69.5%, 66.5%)" stroke-width="1.5"></path><path d="M1005.57 654.57L962.37 535.8" stroke="hsl(312.79999999999995, 69.5%, 66.5%)" stroke-width="1.5"></path><path d="M1005.57 654.57L1094.02 509.98" stroke="hsl(312.79999999999995, 69.5%, 66.5%)" stroke-width="1.5"></path><path d="M1005.57 654.57L854.53 528.94" stroke="hsl(312.79999999999995, 69.5%, 66.5%)" stroke-width="1.5"></path><path d="M1005.57 654.57L802.28 674.35" stroke="hsl(312.79999999999995, 69.5%, 66.5%)" stroke-width="1.5"></path><path d="M1005.57 654.57L960.34 392.16" stroke="hsl(312.79999999999995, 69.5%, 66.5%)" stroke-width="1.5"></path><path d="M1099.96 675.96L1099.96 675.96" stroke="hsl(312.79999999999995, 69.5%, 66.5%)" stroke-width="1.5"></path><path d="M1099.96 675.96L1094.02 509.98" stroke="hsl(312.79999999999995, 69.5%, 66.5%)" stroke-width="1.5"></path><path d="M1414.49 -88.21L1414.49 -88.21" stroke="hsl(312.79999999999995, 69.5%, 66.5%)" stroke-width="1.5"></path><path d="M1414.49 -88.21L1447.5 83.95" stroke="hsl(312.79999999999995, 69.5%, 66.5%)" stroke-width="1.5"></path><path d="M1414.49 -88.21L1600.34 -89.9" stroke="hsl(312.79999999999995, 69.5%, 66.5%)" stroke-width="1.5"></path><path d="M1414.49 -88.21L1271.6 59.51" stroke="hsl(312.79999999999995, 69.5%, 66.5%)" stroke-width="1.5"></path><path d="M1414.49 -88.21L1580.29 60.11" stroke="hsl(312.79999999999995, 69.5%, 66.5%)" stroke-width="1.5"></path><path d="M1414.49 -88.21L1267.66 205.61" stroke="hsl(312.79999999999995, 69.5%, 66.5%)" stroke-width="1.5"></path><path d="M1414.49 -88.21L1436.69 246.27" stroke="hsl(312.79999999999995, 69.5%, 66.5%)" stroke-width="1.5"></path><path d="M1447.5 83.95L1447.5 83.95" stroke="hsl(312.79999999999995, 69.5%, 66.5%)" stroke-width="1.5"></path><path d="M1447.5 83.95L1580.29 60.11" stroke="hsl(312.79999999999995, 69.5%, 66.5%)" stroke-width="1.5"></path><path d="M1447.5 83.95L1436.69 246.27" stroke="hsl(312.79999999999995, 69.5%, 66.5%)" stroke-width="1.5"></path><path d="M1447.5 83.95L1271.6 59.51" stroke="hsl(312.79999999999995, 69.5%, 66.5%)" stroke-width="1.5"></path><path d="M1580.29 60.11L1580.29 60.11" stroke="hsl(312.79999999999995, 69.5%, 66.5%)" stroke-width="1.5"></path><path d="M1580.29 60.11L1600.34 -89.9" stroke="hsl(312.79999999999995, 69.5%, 66.5%)" stroke-width="1.5"></path><path d="M1580.29 60.11L1542.81 247.39" stroke="hsl(312.79999999999995, 69.5%, 66.5%)" stroke-width="1.5"></path><path d="M1580.29 60.11L1436.69 246.27" stroke="hsl(312.79999999999995, 69.5%, 66.5%)" stroke-width="1.5"></path><path d="M78.62 495.98L78.62 495.98" stroke="hsl(312.79999999999995, 69.5%, 66.5%)" stroke-width="1.5"></path><path d="M78.62 495.98L233.11 549.89" stroke="hsl(312.79999999999995, 69.5%, 66.5%)" stroke-width="1.5"></path><path d="M78.62 495.98L45.11 702.86" stroke="hsl(312.79999999999995, 69.5%, 66.5%)" stroke-width="1.5"></path><path d="M78.62 495.98L208.21 673.85" stroke="hsl(312.79999999999995, 69.5%, 66.5%)" stroke-width="1.5"></path><path d="M45.11 702.86L45.11 702.86" stroke="hsl(312.79999999999995, 69.5%, 66.5%)" stroke-width="1.5"></path><path d="M45.11 702.86L208.21 673.85" stroke="hsl(312.79999999999995, 69.5%, 66.5%)" stroke-width="1.5"></path><path d="M45.11 702.86L233.11 549.89" stroke="hsl(312.79999999999995, 69.5%, 66.5%)" stroke-width="1.5"></path><path d="M233.11 549.89L233.11 549.89" stroke="hsl(312.79999999999995, 69.5%, 66.5%)" stroke-width="1.5"></path><path d="M233.11 549.89L545.42 541.15" stroke="hsl(312.79999999999995, 69.5%, 66.5%)" stroke-width="1.5"></path><path d="M545.42 541.15L545.42 541.15" stroke="hsl(312.79999999999995, 69.5%, 66.5%)" stroke-width="1.5"></path><path d="M545.42 541.15L662.38 525.09" stroke="hsl(312.79999999999995, 69.5%, 66.5%)" stroke-width="1.5"></path><path d="M545.42 541.15L662.6 708.53" stroke="hsl(312.79999999999995, 69.5%, 66.5%)" stroke-width="1.5"></path><path d="M545.42 541.15L710.6 404.54" stroke="hsl(312.79999999999995, 69.5%, 66.5%)" stroke-width="1.5"></path><path d="M545.42 541.15L795.55 404.76" stroke="hsl(312.79999999999995, 69.5%, 66.5%)" stroke-width="1.5"></path><path d="M545.42 541.15L802.28 674.35" stroke="hsl(312.79999999999995, 69.5%, 66.5%)" stroke-width="1.5"></path><path d="M545.42 541.15L854.53 528.94" stroke="hsl(312.79999999999995, 69.5%, 66.5%)" stroke-width="1.5"></path><path d="M710.6 404.54L710.6 404.54" stroke="hsl(312.79999999999995, 69.5%, 66.5%)" stroke-width="1.5"></path><path d="M710.6 404.54L795.55 404.76" stroke="hsl(312.79999999999995, 69.5%, 66.5%)" stroke-width="1.5"></path><path d="M662.38 525.09L662.38 525.09" stroke="hsl(312.79999999999995, 69.5%, 66.5%)" stroke-width="1.5"></path><path d="M662.38 525.09L710.6 404.54" stroke="hsl(312.79999999999995, 69.5%, 66.5%)" stroke-width="1.5"></path><path d="M662.6 708.53L662.6 708.53" stroke="hsl(312.79999999999995, 69.5%, 66.5%)" stroke-width="1.5"></path><path d="M662.6 708.53L802.28 674.35" stroke="hsl(312.79999999999995, 69.5%, 66.5%)" stroke-width="1.5"></path><path d="M662.6 708.53L662.38 525.09" stroke="hsl(312.79999999999995, 69.5%, 66.5%)" stroke-width="1.5"></path><path d="M662.6 708.53L854.53 528.94" stroke="hsl(312.79999999999995, 69.5%, 66.5%)" stroke-width="1.5"></path><path d="M662.6 708.53L710.6 404.54" stroke="hsl(312.79999999999995, 69.5%, 66.5%)" stroke-width="1.5"></path><path d="M795.55 404.76L795.55 404.76" stroke="hsl(312.79999999999995, 69.5%, 66.5%)" stroke-width="1.5"></path><path d="M795.55 404.76L854.53 528.94" stroke="hsl(312.79999999999995, 69.5%, 66.5%)" stroke-width="1.5"></path><path d="M795.55 404.76L960.34 392.16" stroke="hsl(312.79999999999995, 69.5%, 66.5%)" stroke-width="1.5"></path><path d="M802.28 674.35L802.28 674.35" stroke="hsl(312.79999999999995, 69.5%, 66.5%)" stroke-width="1.5"></path><path d="M802.28 674.35L854.53 528.94" stroke="hsl(312.79999999999995, 69.5%, 66.5%)" stroke-width="1.5"></path><path d="M802.28 674.35L662.38 525.09" stroke="hsl(312.79999999999995, 69.5%, 66.5%)" stroke-width="1.5"></path><path d="M802.28 674.35L962.37 535.8" stroke="hsl(312.79999999999995, 69.5%, 66.5%)" stroke-width="1.5"></path><path d="M960.34 392.16L960.34 392.16" stroke="hsl(312.79999999999995, 69.5%, 66.5%)" stroke-width="1.5"></path><path d="M960.34 392.16L1088.08 343.66" stroke="hsl(312.79999999999995, 69.5%, 66.5%)" stroke-width="1.5"></path><path d="M960.34 392.16L962.37 535.8" stroke="hsl(312.79999999999995, 69.5%, 66.5%)" stroke-width="1.5"></path><path d="M960.34 392.16L854.53 528.94" stroke="hsl(312.79999999999995, 69.5%, 66.5%)" stroke-width="1.5"></path><path d="M962.37 535.8L962.37 535.8" stroke="hsl(312.79999999999995, 69.5%, 66.5%)" stroke-width="1.5"></path><path d="M1136.37 235.2L1136.37 235.2" stroke="hsl(312.79999999999995, 69.5%, 66.5%)" stroke-width="1.5"></path><path d="M1136.37 235.2L1088.08 343.66" stroke="hsl(312.79999999999995, 69.5%, 66.5%)" stroke-width="1.5"></path><path d="M1136.37 235.2L1267.66 205.61" stroke="hsl(312.79999999999995, 69.5%, 66.5%)" stroke-width="1.5"></path><path d="M1136.37 235.2L1247.78 346.23" stroke="hsl(312.79999999999995, 69.5%, 66.5%)" stroke-width="1.5"></path><path d="M1136.37 235.2L1271.6 59.51" stroke="hsl(312.79999999999995, 69.5%, 66.5%)" stroke-width="1.5"></path><path d="M1088.08 343.66L1088.08 343.66" stroke="hsl(312.79999999999995, 69.5%, 66.5%)" stroke-width="1.5"></path><path d="M1088.08 343.66L1247.78 346.23" stroke="hsl(312.79999999999995, 69.5%, 66.5%)" stroke-width="1.5"></path><path d="M1088.08 343.66L1094.02 509.98" stroke="hsl(312.79999999999995, 69.5%, 66.5%)" stroke-width="1.5"></path><path d="M1088.08 343.66L1258.74 491.66" stroke="hsl(312.79999999999995, 69.5%, 66.5%)" stroke-width="1.5"></path><path d="M1094.02 509.98L1094.02 509.98" stroke="hsl(312.79999999999995, 69.5%, 66.5%)" stroke-width="1.5"></path><path d="M1094.02 509.98L962.37 535.8" stroke="hsl(312.79999999999995, 69.5%, 66.5%)" stroke-width="1.5"></path><path d="M1094.02 509.98L1258.74 491.66" stroke="hsl(312.79999999999995, 69.5%, 66.5%)" stroke-width="1.5"></path><path d="M1271.6 59.51L1271.6 59.51" stroke="hsl(312.79999999999995, 69.5%, 66.5%)" stroke-width="1.5"></path><path d="M1271.6 59.51L1267.66 205.61" stroke="hsl(312.79999999999995, 69.5%, 66.5%)" stroke-width="1.5"></path><path d="M1267.66 205.61L1267.66 205.61" stroke="hsl(312.79999999999995, 69.5%, 66.5%)" stroke-width="1.5"></path><path d="M1267.66 205.61L1247.78 346.23" stroke="hsl(312.79999999999995, 69.5%, 66.5%)" stroke-width="1.5"></path><path d="M1267.66 205.61L1436.69 246.27" stroke="hsl(312.79999999999995, 69.5%, 66.5%)" stroke-width="1.5"></path><path d="M1267.66 205.61L1447.5 83.95" stroke="hsl(312.79999999999995, 69.5%, 66.5%)" stroke-width="1.5"></path><path d="M1267.66 205.61L1088.08 343.66" stroke="hsl(312.79999999999995, 69.5%, 66.5%)" stroke-width="1.5"></path><path d="M1247.78 346.23L1247.78 346.23" stroke="hsl(312.79999999999995, 69.5%, 66.5%)" stroke-width="1.5"></path><path d="M1247.78 346.23L1258.74 491.66" stroke="hsl(312.79999999999995, 69.5%, 66.5%)" stroke-width="1.5"></path><path d="M1258.74 491.66L1258.74 491.66" stroke="hsl(312.79999999999995, 69.5%, 66.5%)" stroke-width="1.5"></path><path d="M1258.74 491.66L1306.96 642.47" stroke="hsl(312.79999999999995, 69.5%, 66.5%)" stroke-width="1.5"></path><path d="M1258.74 491.66L1422.1 544.68" stroke="hsl(312.79999999999995, 69.5%, 66.5%)" stroke-width="1.5"></path><path d="M1306.96 642.47L1306.96 642.47" stroke="hsl(312.79999999999995, 69.5%, 66.5%)" stroke-width="1.5"></path><path d="M1306.96 642.47L1414.39 662.13" stroke="hsl(312.79999999999995, 69.5%, 66.5%)" stroke-width="1.5"></path><path d="M1306.96 642.47L1422.1 544.68" stroke="hsl(312.79999999999995, 69.5%, 66.5%)" stroke-width="1.5"></path><path d="M1306.96 642.47L1099.96 675.96" stroke="hsl(312.79999999999995, 69.5%, 66.5%)" stroke-width="1.5"></path><path d="M1306.96 642.47L1094.02 509.98" stroke="hsl(312.79999999999995, 69.5%, 66.5%)" stroke-width="1.5"></path><path d="M1436.69 246.27L1436.69 246.27" stroke="hsl(312.79999999999995, 69.5%, 66.5%)" stroke-width="1.5"></path><path d="M1436.69 246.27L1542.81 247.39" stroke="hsl(312.79999999999995, 69.5%, 66.5%)" stroke-width="1.5"></path><path d="M1436.69 246.27L1408 393.57" stroke="hsl(312.79999999999995, 69.5%, 66.5%)" stroke-width="1.5"></path><path d="M1436.69 246.27L1549.96 400.53" stroke="hsl(312.79999999999995, 69.5%, 66.5%)" stroke-width="1.5"></path><path d="M1436.69 246.27L1247.78 346.23" stroke="hsl(312.79999999999995, 69.5%, 66.5%)" stroke-width="1.5"></path><path d="M1408 393.57L1408 393.57" stroke="hsl(312.79999999999995, 69.5%, 66.5%)" stroke-width="1.5"></path><path d="M1408 393.57L1549.96 400.53" stroke="hsl(312.79999999999995, 69.5%, 66.5%)" stroke-width="1.5"></path><path d="M1408 393.57L1422.1 544.68" stroke="hsl(312.79999999999995, 69.5%, 66.5%)" stroke-width="1.5"></path><path d="M1422.1 544.68L1422.1 544.68" stroke="hsl(312.79999999999995, 69.5%, 66.5%)" stroke-width="1.5"></path><path d="M1422.1 544.68L1414.39 662.13" stroke="hsl(312.79999999999995, 69.5%, 66.5%)" stroke-width="1.5"></path><path d="M1422.1 544.68L1543.46 491.34" stroke="hsl(312.79999999999995, 69.5%, 66.5%)" stroke-width="1.5"></path><path d="M1414.39 662.13L1414.39 662.13" stroke="hsl(312.79999999999995, 69.5%, 66.5%)" stroke-width="1.5"></path><path d="M1414.39 662.13L1594.98 697.17" stroke="hsl(312.79999999999995, 69.5%, 66.5%)" stroke-width="1.5"></path><path d="M1414.39 662.13L1543.46 491.34" stroke="hsl(312.79999999999995, 69.5%, 66.5%)" stroke-width="1.5"></path><path d="M1600.34 -89.9L1600.34 -89.9" stroke="hsl(312.79999999999995, 69.5%, 66.5%)" stroke-width="1.5"></path><path d="M1600.34 -89.9L1447.5 83.95" stroke="hsl(312.79999999999995, 69.5%, 66.5%)" stroke-width="1.5"></path><path d="M1600.34 -89.9L1542.81 247.39" stroke="hsl(312.79999999999995, 69.5%, 66.5%)" stroke-width="1.5"></path><path d="M1600.34 -89.9L1271.6 59.51" stroke="hsl(312.79999999999995, 69.5%, 66.5%)" stroke-width="1.5"></path><path d="M1542.81 247.39L1542.81 247.39" stroke="hsl(312.79999999999995, 69.5%, 66.5%)" stroke-width="1.5"></path><path d="M1542.81 247.39L1549.96 400.53" stroke="hsl(312.79999999999995, 69.5%, 66.5%)" stroke-width="1.5"></path><path d="M1542.81 247.39L1447.5 83.95" stroke="hsl(312.79999999999995, 69.5%, 66.5%)" stroke-width="1.5"></path><path d="M1549.96 400.53L1549.96 400.53" stroke="hsl(312.79999999999995, 69.5%, 66.5%)" stroke-width="1.5"></path><path d="M1549.96 400.53L1543.46 491.34" stroke="hsl(312.79999999999995, 69.5%, 66.5%)" stroke-width="1.5"></path><path d="M1543.46 491.34L1543.46 491.34" stroke="hsl(312.79999999999995, 69.5%, 66.5%)" stroke-width="1.5"></path><path d="M1543.46 491.34L1408 393.57" stroke="hsl(312.79999999999995, 69.5%, 66.5%)" stroke-width="1.5"></path><path d="M1543.46 491.34L1594.98 697.17" stroke="hsl(312.79999999999995, 69.5%, 66.5%)" stroke-width="1.5"></path><path d="M1594.98 697.17L1594.98 697.17" stroke="hsl(312.79999999999995, 69.5%, 66.5%)" stroke-width="1.5"></path><path d="M1594.98 697.17L1422.1 544.68" stroke="hsl(312.79999999999995, 69.5%, 66.5%)" stroke-width="1.5"></path><path d="M1594.98 697.17L1306.96 642.47" stroke="hsl(312.79999999999995, 69.5%, 66.5%)" stroke-width="1.5"></path><path d="M1594.98 697.17L1549.96 400.53" stroke="hsl(312.79999999999995, 69.5%, 66.5%)" stroke-width="1.5"></path><path d="M1594.98 697.17L1408 393.57" stroke="hsl(312.79999999999995, 69.5%, 66.5%)" stroke-width="1.5"></path><circle r="25" cx="-97.22" cy="538.69" fill="url(&quot;#SvgjsRadialGradient1007&quot;)"></circle><circle r="25" cx="-58.91" cy="674.62" fill="url(&quot;#SvgjsRadialGradient1007&quot;)"></circle><circle r="25" cx="208.21" cy="673.85" fill="url(&quot;#SvgjsRadialGradient1007&quot;)"></circle><circle r="25" cx="854.53" cy="528.94" fill="url(&quot;#SvgjsRadialGradient1007&quot;)"></circle><circle r="25" cx="974.88" cy="244.89" fill="url(&quot;#SvgjsRadialGradient1007&quot;)"></circle><circle r="25" cx="1005.57" cy="654.57" fill="url(&quot;#SvgjsRadialGradient1007&quot;)"></circle><circle r="25" cx="1099.96" cy="675.96" fill="url(&quot;#SvgjsRadialGradient1007&quot;)"></circle><circle r="25" cx="1414.49" cy="-88.21" fill="url(&quot;#SvgjsRadialGradient1007&quot;)"></circle><circle r="25" cx="1447.5" cy="83.95" fill="url(&quot;#SvgjsRadialGradient1007&quot;)"></circle><circle r="25" cx="1580.29" cy="60.11" fill="url(&quot;#SvgjsRadialGradient1007&quot;)"></circle><circle r="5" cx="78.62" cy="495.98" fill="#ec96da"></circle><circle r="5" cx="45.11" cy="702.86" fill="#ec96da"></circle><circle r="5" cx="233.11" cy="549.89" fill="#ec96da"></circle><circle r="5" cx="545.42" cy="541.15" fill="#ec96da"></circle><circle r="5" cx="710.6" cy="404.54" fill="#ec96da"></circle><circle r="5" cx="662.38" cy="525.09" fill="#ec96da"></circle><circle r="5" cx="662.6" cy="708.53" fill="#ec96da"></circle><circle r="5" cx="795.55" cy="404.76" fill="#ec96da"></circle><circle r="5" cx="802.28" cy="674.35" fill="#ec96da"></circle><circle r="5" cx="960.34" cy="392.16" fill="#ec96da"></circle><circle r="5" cx="962.37" cy="535.8" fill="#ec96da"></circle><circle r="5" cx="1136.37" cy="235.2" fill="#ec96da"></circle><circle r="5" cx="1088.08" cy="343.66" fill="#ec96da"></circle><circle r="5" cx="1094.02" cy="509.98" fill="#ec96da"></circle><circle r="5" cx="1271.6" cy="59.51" fill="#ec96da"></circle><circle r="5" cx="1267.66" cy="205.61" fill="#ec96da"></circle><circle r="5" cx="1247.78" cy="346.23" fill="#ec96da"></circle><circle r="5" cx="1258.74" cy="491.66" fill="#ec96da"></circle><circle r="5" cx="1306.96" cy="642.47" fill="#ec96da"></circle><circle r="5" cx="1436.69" cy="246.27" fill="#ec96da"></circle><circle r="5" cx="1408" cy="393.57" fill="#ec96da"></circle><circle r="5" cx="1422.1" cy="544.68" fill="#ec96da"></circle><circle r="5" cx="1414.39" cy="662.13" fill="#ec96da"></circle><circle r="5" cx="1600.34" cy="-89.9" fill="#ec96da"></circle><circle r="5" cx="1542.81" cy="247.39" fill="#ec96da"></circle><circle r="5" cx="1549.96" cy="400.53" fill="#ec96da"></circle><circle r="5" cx="1543.46" cy="491.34" fill="#ec96da"></circle><circle r="5" cx="1594.98" cy="697.17" fill="#ec96da"></circle></g><defs><mask id="SvgjsMask1006"><rect width="1440" height="560" fill="#ffffff"></rect></mask><radialGradient id="SvgjsRadialGradient1007"><stop stop-color="#ffffff" offset="0.1"></stop><stop stop-color="rgba(217, 44, 180, 1)" offset="0.2"></stop><stop stop-color="rgba(217, 44, 180, 0)" offset="1"></stop></radialGradient></defs></svg>